<?xml version="1.0" encoding="utf-8"?>
<!-- Generator: Adobe Illustrator 17.0.0, SVG Export Plug-In . SVG Version: 6.00 Build 0)  -->
<!DOCTYPE svg PUBLIC "-//W3C//DTD SVG 1.1//EN" "http://www.w3.org/Graphics/SVG/1.1/DTD/svg11.dtd">
<svg version="1.1" id="_x32_3_European_Under-17_Championship"
	 xmlns="http://www.w3.org/2000/svg" xmlns:xlink="http://www.w3.org/1999/xlink" x="0px" y="0px" width="300px" height="300px"
	 viewBox="0 0 300 300" enable-background="new 0 0 300 300" xml:space="preserve">
<g id="g5">
	<path id="UEFA_1_" d="M161.439,202.51l8.156,2.188l0.895-3.282l-8.156-2.188l0.497-1.691c0.497-1.89,1.293-2.188,2.984-1.79
		l6.565,1.691l0.895-3.382l-6.764-1.79c-3.183-0.796-6.068-0.099-7.062,3.78l-2.984,11.439c-0.199,0.796,0.199,1.492,0.995,1.691
		l2.188,0.597L161.439,202.51z M143.932,193.757l-0.696-3.382l-11.339,2.288c-0.796,0.199-1.194,0.796-1.094,1.591l2.387,11.638
		c0.796,3.979,3.68,4.874,6.863,4.178l6.863-1.393l-0.696-3.382l-6.664,1.393c-1.691,0.398-2.487,0-2.885-1.89l-0.398-1.691
		l8.355-1.691l-0.696-3.282l-8.355,1.691l-0.796-4.178L143.932,193.757z M116.28,217.032c-1.293-0.199-2.188-0.696-3.382-2.288
		l-6.366-7.858l-2.885,2.288l6.963,8.654c1.492,1.79,3.083,2.785,5.073,2.984c2.188,0.199,4.178-0.497,6.068-1.989
		c1.89-1.591,2.984-3.382,3.183-5.57c0.199-1.989-0.398-3.78-1.79-5.57l-6.963-8.554l-2.885,2.288l6.366,7.858
		c1.293,1.591,1.591,2.487,1.492,3.78c-0.099,1.094-0.796,2.188-1.79,2.984C118.568,216.734,117.375,217.132,116.28,217.032z
		 M190.682,203.803c0.895,0.696,0.796,1.293,0.597,1.989l-5.272,18.501l-2.984-2.785l0.995-3.581l-3.581-2.686l3.084-1.989
		l1.492,1.194l1.79-6.366l-11.638,7.56l-3.382-1.89l16.114-10.444c0.597-0.398,1.194-0.597,2.089,0.099L190.682,203.803z
		 M119.563,229.864l-2.188-1.89c7.957-9.052,19.695-14.821,32.725-14.821s24.767,5.769,32.725,14.821l-2.188,1.89
		c-7.46-8.455-18.402-13.826-30.537-13.826C137.964,216.038,127.023,221.409,119.563,229.864z M99.371,207.085l-2.089-1.989
		c13.428-13.727,32.029-22.181,52.718-22.181s39.389,8.554,52.718,22.181l-2.089,1.989c-12.831-13.13-30.835-21.386-50.729-21.386
		C130.206,185.799,112.302,193.956,99.371,207.085z"/>
	<g id="g8">
		<g id="g10">
			<path id="path12" d="M190.782,99.163h-1.094v3.481c0,0.099,0,0.099-0.199,0.099h-0.696c-0.099,0-0.099,0-0.099-0.099v-3.481
				h-1.094c-0.099,0-0.099,0-0.099-0.099v-0.597c0-0.099,0-0.099,0.099-0.099h3.183c0.099,0,0.099,0,0.099,0.099v0.597
				C190.881,99.063,190.881,99.163,190.782,99.163z"/>
			<path id="path14" d="M195.059,100.158L195.059,100.158l-0.298,0.597l-0.497,1.194c-0.099,0.199-0.199,0.298-0.398,0.298h-0.298
				c-0.199,0-0.298-0.099-0.398-0.298l-0.398-0.796l-0.398-0.895l0,0v2.288c0,0.099,0,0.099-0.099,0.099h-0.597
				c-0.099,0-0.099,0-0.099-0.099v-3.879c0-0.298,0.099-0.398,0.398-0.398h0.398c0.199,0,0.298,0.099,0.398,0.298l0.696,1.492
				l0.398,0.895l0,0l0.398-0.995l0.597-1.393c0.099-0.199,0.199-0.298,0.497-0.298h0.298c0.298,0,0.398,0.099,0.398,0.398v3.879
				c0,0.099,0,0.099-0.099,0.099h-0.597c-0.099,0-0.099,0-0.099-0.099v-2.387H195.059z"/>
		</g>
		<g id="g16">
			<g id="g18">
				<path id="path20" d="M133.19,70.218c0,0-8.654,24.071,1.094,36.505c0,0-29.144,35.311,2.387,68.931
					C136.771,175.554,90.319,137.657,133.19,70.218z"/>
				<path id="path22" d="M162.732,98.665c0,0-10.743,8.355-25.364,8.554c0,0-31.332,37.3-0.597,68.334
					C136.771,175.554,108.025,145.117,162.732,98.665z"/>
				<path id="path24" d="M132.892,70.516c0,0.099,0,0.099-0.099,0.199l0,0C132.892,70.616,132.892,70.516,132.892,70.516z
					 M132.394,73.003c-1.691,6.465-4.874,22.778,2.885,32.526c0.895,0.199,1.89,0.398,2.785,0.497
					c12.533-0.199,21.783-5.471,24.071-6.963c0.298-0.199,0.497-0.298,0.597-0.398l0,0l0,0
					C128.913,106.026,130.902,80.96,132.394,73.003z"/>
				<path id="path26" d="M136.373,121.145"/>
				<path id="path28" d="M136.075,77.479c0-1.691,0.298-3.382,0.796-4.973c-0.398-1.989-0.597-3.979-0.597-5.968
					c0-0.199,0-0.398,0-0.597c-2.885,3.282-4.675,7.261-4.675,11.638c0,11.041,11.24,20.093,25.066,20.093
					c0.796,0,1.492,0,2.188-0.099C146.121,96.577,136.075,87.923,136.075,77.479z"/>
				<path id="path30" d="M130.206,162.623c0.099,0.398,0.199,0.696,0.199,0.696C130.305,163.121,130.305,162.822,130.206,162.623z
					 M195.954,83.546l-6.764-0.199c-4.774,6.764-12.334,11.339-21.087,12.135c-18.601,15.119-45.059,41.876-37.897,67.141
					C129.012,157.55,124.238,123.93,195.954,83.546z"/>
				<path id="path32" d="M174.867,38.885l2.487-0.497l10.245-28.746V1.485l-11.936,33.023c-1.89,0.497-5.172,1.691-7.957,2.785
					C170.192,37.592,172.579,38.09,174.867,38.885z"/>
				<path id="path34" d="M136.273,66.338c0.099-16.014,13.03-28.945,28.945-29.045c2.984-1.492,6.167-2.785,9.449-3.879
					l5.869-16.711c0,0-22.878,9.847-41.478,32.625c19.595-26.657,42.672-35.51,42.672-35.51l5.073-13.13
					c-57.492,25.563-69.926,89.024-71.716,102.253c-1.989,15.119-2.686,32.426,5.67,49.933
					C112.6,134.176,109.616,104.335,136.273,66.338z"/>
				<path id="path36" d="M195.954,85.138v6.764c0,0-49.237,21.684-60.775,45.755C135.08,137.657,142.043,116.669,195.954,85.138z"/>
				<path id="path38" d="M180.039,43.859c-7.858-1.691-29.045-2.984-41.578,29.641c0.398,1.393,0.895,2.785,1.393,4.078
					C141.844,71.909,153.879,38.985,180.039,43.859z M183.023,45.052c-0.298-0.199-0.497-0.398-0.796-0.597
					c-7.361-1.293-29.442-1.393-38.395,39.489c0.597,0.796,1.293,1.492,1.989,2.188C147.613,77.379,156.465,41.471,183.023,45.052z
					 M184.913,46.743c-7.758,0.099-23.574,5.471-24.171,47.048c1.492,0.298,3.084,0.398,4.675,0.398
					c15.318,0,27.752-12.433,27.752-27.752C193.169,58.779,189.986,51.816,184.913,46.743z M181.929,44.157
					c-4.576-3.481-10.345-5.471-16.512-5.471c-14.622,0-26.558,11.24-27.652,25.563C144.131,53.308,159.052,34.409,181.929,44.157z
					 M184.615,46.445c-0.199-0.199-0.497-0.497-0.696-0.696c-9.25-0.199-29.244,4.277-32.327,44.761
					c0.796,0.497,1.691,0.895,2.586,1.293C154.874,81.756,159.549,44.157,184.615,46.445z"/>
			</g>
			<g id="g40">
				<path id="path42" d="M161.837,178.041c5.57,0.895,11.041,2.487,16.114,4.575c-0.298-5.968-4.377-26.061-42.274-41.478
					C135.677,141.138,169.197,161.231,161.837,178.041z"/>
				<path id="path44" d="M145.922,177.245c1.393-0.099,2.785-0.099,4.178-0.099c2.984,0,5.869,0.199,8.654,0.497
					c1.492-3.879,4.973-18.6-23.176-36.505C135.677,141.138,159.748,166.503,145.922,177.245z"/>
				<path id="path46" d="M123.442,182.119c5.968-2.288,12.334-3.879,18.998-4.576c3.68-3.183,11.538-13.727-7.162-36.007
					c0,0-3.481,6.963-3.083,10.444C132.195,152.08,147.215,162.623,123.442,182.119z"/>
				<path id="path48" d="M150.099,178.837c15.119,0,29.144,4.575,40.881,12.334c0.099,0.099,0.199,0.099,0.298,0.199
					c-9.052-9.052-25.364-15.119-41.18-15.119c-15.915,0-32.426,6.366-41.18,15.119c0.298-0.199,0.497-0.298,0.796-0.398
					C121.254,183.313,135.179,178.837,150.099,178.837z"/>
			</g>
		</g>
	</g>
</g>
<g id="g50">
	<path id="path52" d="M186.057,232.947h2.487v2.487c0,0.995-0.199,1.691-0.597,2.288c-0.398,0.597-0.995,0.796-1.89,0.796v-0.796
		c0.298,0,0.597-0.099,0.796-0.298c0.199-0.099,0.298-0.298,0.398-0.497s0.099-0.497,0.099-0.696c0-0.298,0-0.597,0-0.796h-0.796
		c-0.099,0-0.298,0-0.398,0L186.057,232.947L186.057,232.947z"/>
	<path id="path54" d="M97.829,248.564v-15.418h2.885v13.428v2.188c0,0.298,0,0.497,0.099,0.696c0,0.199,0.199,0.298,0.398,0.398
		c0.199,0.099,0.497,0.099,0.895,0s0.895-0.199,1.591-0.298c0.298-0.099,0.597-0.199,0.895-0.298
		c0.298-0.099,0.597-0.199,0.895-0.398c0.298-0.199,0.497-0.398,0.696-0.597c0.199-0.199,0.298-0.497,0.298-0.895v0v-14.323h2.885
		v13.428v2.188c0,0.298,0,0.497,0.099,0.696c0,0.199,0.199,0.298,0.398,0.398c0.199,0.099,0.497,0.099,0.895,0
		s0.895-0.199,1.591-0.298c0.298-0.099,0.597-0.199,0.995-0.298s0.696-0.199,0.895-0.398c0.298-0.199,0.497-0.398,0.696-0.597
		c0.199-0.199,0.298-0.497,0.298-0.895v-0.099v-14.323h2.785v14.821v0.199c0,0.497-0.099,0.895-0.199,1.293
		c-0.199,0.298-0.398,0.597-0.597,0.796c-0.199,0.199-0.497,0.298-0.796,0.398c-0.298,0.099-0.597,0.199-0.895,0.298
		c0,0-0.199,0.099-0.497,0.099c-0.298,0.099-0.497,0.099-0.696,0.199c-0.597,0.199-1.194,0.298-1.89,0.497
		c-0.696,0.199-1.293,0.298-1.79,0.497c-0.497,0.099-1.094,0.099-1.79,0.099c-0.597-0.099-1.094-0.298-1.492-0.597
		c-0.298-0.199-0.497-0.398-0.597-0.696c-0.099,0-0.298,0.099-0.497,0.099c-0.199,0.099-0.398,0.099-0.497,0.099
		c-0.597,0.199-1.194,0.298-1.89,0.497s-1.293,0.298-1.79,0.497c-0.497,0.099-1.094,0.099-1.79,0.099
		c-0.597-0.099-1.094-0.298-1.591-0.597c-0.398-0.298-0.597-0.597-0.696-0.995c-0.099-0.298-0.099-0.796-0.099-1.492v-0.398H97.829z
		"/>
	<path id="path56" d="M155.819,251.747h-2.785v-15.02v-0.298c0-0.199,0-0.298-0.099-0.497s-0.199-0.398-0.398-0.497
		c-0.199-0.199-0.497-0.298-0.895-0.398c-0.398-0.099-0.895-0.199-1.492-0.199c-0.597,0-1.094,0.099-1.492,0.199
		c-0.398,0.099-0.696,0.298-0.895,0.398c-0.199,0.199-0.298,0.398-0.398,0.497c-0.099,0.199-0.099,0.298-0.099,0.497v0.199v15.02
		h-2.885v-15.02v-0.199c0-0.199,0-0.298-0.099-0.497c-0.099-0.199-0.199-0.398-0.398-0.497c-0.199-0.199-0.497-0.298-0.895-0.398
		c-0.398-0.099-0.895-0.199-1.591-0.199c-0.597,0-1.094,0.099-1.492,0.199c-0.398,0.099-0.696,0.298-0.895,0.398
		c-0.199,0.199-0.298,0.398-0.398,0.497c-0.099,0.199-0.099,0.298-0.099,0.497v0.199v15.02h-2.885v-15.02v-0.696
		c0-0.199,0-0.497,0.099-0.796c0.099-0.298,0.298-0.696,0.696-0.995c0.398-0.298,0.995-0.597,1.691-0.895
		c0.796-0.298,1.79-0.398,3.183-0.398c1.094,0,1.89,0.099,2.586,0.298c0.696,0.199,1.194,0.398,1.691,0.597
		c0.398-0.199,0.995-0.398,1.691-0.597c0.696-0.199,1.492-0.298,2.586-0.298c1.293,0,2.387,0.099,3.183,0.398
		c0.796,0.199,1.293,0.497,1.691,0.895c0.398,0.298,0.597,0.696,0.696,0.995c0.099,0.398,0.099,0.597,0.099,0.796v0.298
		L155.819,251.747L155.819,251.747z"/>
	<path id="path58" d="M169.446,251.747h-6.565c-0.696,0-1.194-0.099-1.691-0.298c-0.497-0.199-0.895-0.398-1.194-0.696
		c-0.298-0.298-0.497-0.597-0.696-0.895c-0.199-0.298-0.199-0.696-0.199-0.995v-0.696v-11.439v-0.696
		c0-0.298,0.099-0.696,0.199-0.995c0.199-0.298,0.398-0.597,0.696-0.895c0.298-0.298,0.696-0.497,1.194-0.696
		c0.497-0.199,0.995-0.298,1.691-0.298h6.565v1.79h-3.581h-1.989c-0.597,0-1.094,0.099-1.393,0.398
		c-0.298,0.298-0.497,0.696-0.497,1.094v0.199v4.774h6.068v1.989h-6.068v4.675v0.298c0,0.398,0.199,0.796,0.497,1.094
		c0.398,0.298,0.796,0.497,1.393,0.497h1.989h3.581V251.747L169.446,251.747z"/>
	<path id="path60" d="M184.167,251.747h-2.885v-15.02v-0.298c0-0.199,0-0.298-0.099-0.497s-0.199-0.398-0.398-0.497
		c-0.199-0.199-0.497-0.298-0.895-0.398c-0.398-0.099-0.895-0.199-1.591-0.199c-0.597,0-1.094,0.099-1.492,0.199
		c-0.398,0.099-0.696,0.298-0.796,0.398c-0.199,0.199-0.298,0.398-0.398,0.497c-0.099,0.199-0.099,0.298-0.099,0.497v0.199v15.02
		h-2.785v-15.02v-0.696c0-0.199,0.099-0.497,0.099-0.796c0.099-0.298,0.298-0.696,0.696-0.995c0.398-0.298,0.995-0.597,1.691-0.895
		c0.796-0.298,1.79-0.398,3.183-0.398c1.293,0,2.387,0.099,3.183,0.398c0.796,0.199,1.293,0.497,1.691,0.895
		c0.398,0.298,0.597,0.696,0.696,0.995c0.099,0.398,0.099,0.597,0.099,0.796v0.298L184.167,251.747L184.167,251.747z"/>
	<path id="path62" d="M190.931,236.031c0-0.199,0.099-0.497,0.099-0.796c0.099-0.398,0.298-0.696,0.696-0.995
		c0.398-0.298,0.995-0.597,1.691-0.895c0.796-0.199,1.79-0.398,3.183-0.398c1.293,0,2.387,0.099,3.183,0.398
		c0.796,0.298,1.293,0.597,1.691,0.895c0.398,0.298,0.597,0.696,0.696,0.995c0.099,0.398,0.099,0.597,0.099,0.796v0.597h-2.785
		v-0.199c0-0.199,0-0.298-0.099-0.497s-0.199-0.398-0.398-0.497c-0.199-0.199-0.497-0.298-0.895-0.398
		c-0.398-0.099-0.895-0.199-1.492-0.199c-0.597,0-1.194,0.099-1.492,0.199c-0.398,0.099-0.696,0.199-0.895,0.398
		c-0.199,0.199-0.398,0.298-0.398,0.497c-0.099,0.199-0.099,0.298-0.099,0.497v0.298v2.288v0.298c0,0.199,0.099,0.497,0.199,0.696
		c0.199,0.298,0.497,0.497,1.094,0.696c0.099,0,0.298,0.099,0.497,0.099c0.199,0.099,0.398,0.099,0.497,0.199l2.487,0.696
		c0.099,0,0.199,0,0.199,0c1.293,0.298,2.188,0.696,2.686,1.293c0.497,0.497,0.796,1.094,0.796,1.79v0.199v0.497v3.183v0.497
		c0,0.199-0.099,0.497-0.099,0.796c-0.099,0.298-0.298,0.696-0.696,0.995c-0.398,0.298-0.895,0.597-1.691,0.895
		c-0.796,0.298-1.79,0.398-3.183,0.398c-1.293,0-2.387-0.099-3.183-0.398c-0.796-0.199-1.293-0.497-1.691-0.895
		c-0.398-0.298-0.597-0.696-0.696-0.995c-0.099-0.398-0.099-0.597-0.099-0.796v-0.696h2.885v0.298c0,0.199,0,0.298,0.099,0.497
		c0.099,0.199,0.199,0.298,0.398,0.497c0.199,0.099,0.497,0.298,0.895,0.398c0.398,0.099,0.895,0.199,1.492,0.199
		c0.597,0,1.094-0.099,1.492-0.199c0.398-0.099,0.696-0.298,0.895-0.398c0.199-0.199,0.298-0.298,0.398-0.497
		c0.099-0.199,0.099-0.398,0.099-0.497v-0.199v-2.984v-0.199c0-0.199-0.099-0.497-0.298-0.796c-0.199-0.298-0.497-0.497-1.094-0.597
		c-0.099,0-0.199-0.099-0.298-0.099c-0.099,0-0.298-0.099-0.398-0.099c-0.398-0.099-0.895-0.199-1.393-0.398
		c-0.497-0.099-0.995-0.298-1.492-0.398c-0.497-0.099-0.796-0.199-1.094-0.298c-0.398-0.099-0.796-0.298-1.094-0.398
		c-0.298-0.199-0.597-0.398-0.796-0.696c-0.398-0.497-0.597-0.995-0.597-1.591v-0.298v-2.586L190.931,236.031L190.931,236.031z"/>
	<path id="path64" d="M132.444,235.135c-0.099-0.398-0.298-0.696-0.696-0.995c-0.398-0.298-0.995-0.597-1.691-0.895
		c-0.796-0.199-1.79-0.398-3.183-0.398l0,0c-1.293,0-2.387,0.099-3.183,0.398c-0.796,0.298-1.293,0.597-1.691,0.895
		c-0.398,0.298-0.597,0.696-0.696,0.995c-0.099,0.398-0.099,0.597-0.099,0.796v12.831c0,0.199,0,0.497,0.099,0.796
		c0.099,0.398,0.298,0.696,0.696,0.995s0.895,0.597,1.691,0.895c0.796,0.298,1.79,0.398,3.183,0.398l0,0
		c1.393,0,2.387-0.099,3.183-0.398c0.796-0.199,1.293-0.497,1.691-0.895c0.398-0.298,0.597-0.696,0.696-0.995
		c0.099-0.398,0.099-0.597,0.099-0.796v-12.831C132.543,235.832,132.543,235.533,132.444,235.135 M129.758,248.365
		c0,0.199,0,0.298-0.099,0.497s-0.199,0.398-0.398,0.497c-0.199,0.199-0.497,0.298-0.895,0.398
		c-0.398,0.099-0.895,0.199-1.492,0.199h-0.099h-0.099c-0.597,0-1.094-0.099-1.492-0.199c-0.398-0.099-0.696-0.298-0.895-0.398
		c-0.199-0.199-0.298-0.298-0.398-0.497c-0.099-0.199-0.099-0.298-0.099-0.497v-11.936c0-0.199,0-0.298,0.099-0.497
		s0.199-0.398,0.398-0.497c0.199-0.199,0.497-0.298,0.895-0.398c0.398-0.099,0.895-0.199,1.492-0.199h0.099h0.099
		c0.597,0,1.094,0.099,1.492,0.199c0.398,0.099,0.696,0.298,0.895,0.398c0.199,0.199,0.298,0.398,0.398,0.497
		c0.099,0.199,0.099,0.298,0.099,0.497V248.365z"/>
	<path id="path66" d="M120.01,298.596h-13.925c-1.393,0-2.686-0.199-3.68-0.696c-0.995-0.398-1.89-0.995-2.586-1.691
		c-0.696-0.696-1.194-1.492-1.591-2.288c-0.398-0.796-0.497-1.691-0.497-2.487v-1.492v-25.265v-1.492
		c0-0.796,0.199-1.591,0.497-2.487c0.298-0.796,0.895-1.591,1.591-2.288c0.696-0.696,1.591-1.293,2.586-1.691
		c0.995-0.398,2.288-0.696,3.68-0.696h13.925v5.371h-7.957h-3.979c-0.995,0-1.691,0.298-2.288,0.796
		c-0.597,0.597-0.796,1.094-0.796,1.89v0.497v9.449v0.298h0.298h11.837v5.869h-11.837h-0.298v0.298v9.35v0.597
		c0,0.696,0.298,1.293,0.796,1.89c0.597,0.497,1.293,0.796,2.288,0.796h4.078h7.957v4.675v0.796H120.01z"/>
	<path id="path68" d="M134.931,299.093c-2.785,0-4.973-0.298-6.565-0.895c-1.591-0.597-2.885-1.293-3.68-2.089
		c-0.895-0.796-1.393-1.691-1.591-2.586c-0.199-0.796-0.298-1.492-0.298-1.89v-1.492v-33.819h7.162v33.819v0.497
		c0,0.298,0,0.597,0.199,0.895c0.099,0.298,0.298,0.497,0.597,0.796c0.298,0.298,0.796,0.497,1.492,0.796
		c0.597,0.199,1.591,0.298,2.586,0.298h0.099c1.194,0,2.188-0.099,2.785-0.298c0.696-0.199,1.194-0.497,1.492-0.796
		c0.298-0.298,0.497-0.497,0.597-0.796s0.199-0.597,0.199-0.796v-0.597v-33.819h7.162v33.819v1.393c0,0.497-0.199,1.393-0.298,1.989
		c-0.199,0.895-0.696,1.691-1.591,2.586c-0.895,0.796-2.089,1.492-3.68,2.089C139.904,298.795,137.716,299.093,134.931,299.093"/>
	<path id="path70" d="M177.503,298.596h-7.659l-7.062-17.108l-0.099-0.199l-0.199,0.099h-0.099l-0.298,0.099
		c-0.398,0.099-0.796,0.199-1.094,0.298l-0.995,0.298c-0.497,0.099-0.995,0.298-1.393,0.497c-0.298,0.099-0.597,0.398-0.796,0.597
		c-0.199,0.199-0.298,0.497-0.398,0.895v14.423h-7.162v-34.018v-1.194c0-0.497,0.099-1.094,0.298-1.89
		c0.199-0.895,0.696-1.79,1.591-2.586c0.895-0.796,2.089-1.492,3.68-2.089c1.591-0.597,3.78-0.895,6.565-0.895
		c2.785,0,4.973,0.298,6.565,0.895c1.591,0.597,2.885,1.293,3.68,2.089c0.895,0.796,1.393,1.691,1.591,2.586
		c0.199,0.895,0.298,1.393,0.298,1.89v1.492v6.565v1.393c0,1.293-0.398,2.686-1.293,3.879c-0.696,0.995-1.79,1.79-3.382,2.487
		l-0.298,0.099l0.099,0.298L177.503,298.596z M162.185,261.494c-1.094,0-1.989,0.099-2.686,0.298
		c-0.597,0.199-1.094,0.497-1.393,0.796c-0.298,0.298-0.497,0.597-0.597,0.796c-0.099,0.298-0.099,0.597-0.099,0.895v0.497v11.439
		v0.398l0.398-0.099h0.099c0.597-0.199,1.293-0.398,1.89-0.597c0.696-0.199,1.293-0.398,1.989-0.597
		c0.696-0.199,1.293-0.398,1.79-0.497l0.796-0.199c0.298-0.099,0.497-0.099,0.696-0.199c0.895-0.298,1.492-0.696,1.79-1.094
		c0.298-0.497,0.398-0.895,0.398-1.293v-7.46v-0.299c0-0.298-0.099-0.597-0.199-0.895c-0.099-0.298-0.298-0.497-0.597-0.796
		c-0.298-0.298-0.895-0.497-1.492-0.796C164.373,261.594,163.378,261.494,162.185,261.494L162.185,261.494L162.185,261.494z"/>
	<path id="path72" d="M201.872,261.395c-0.199-0.895-0.696-1.79-1.591-2.586c-0.895-0.796-2.089-1.492-3.68-2.089
		c-1.591-0.597-3.78-0.895-6.565-0.895c-2.785,0-4.973,0.298-6.565,0.895c-1.691,0.597-2.885,1.293-3.68,2.089
		c-0.895,0.796-1.393,1.691-1.591,2.586c-0.199,0.895-0.298,1.393-0.298,1.89v28.149c0,0.497,0.099,1.094,0.298,1.89
		c0.199,0.895,0.696,1.79,1.591,2.586c0.796,0.796,2.089,1.492,3.68,2.089c1.591,0.597,3.78,0.895,6.565,0.895
		c2.785,0,4.973-0.298,6.565-0.895c1.591-0.597,2.885-1.293,3.68-2.089c0.895-0.796,1.393-1.691,1.591-2.586
		c0.199-0.895,0.298-1.492,0.298-1.89v-28.149C202.171,262.887,202.071,262.29,201.872,261.395 M195.009,290.042v0.497
		c0,0.298-0.099,0.597-0.099,0.895c-0.099,0.298-0.298,0.497-0.597,0.796c-0.298,0.298-0.796,0.497-1.492,0.796
		c-0.597,0.199-1.591,0.298-2.686,0.298h-0.099c-0.099,0-0.099,0-0.199,0s-0.099,0-0.199,0h-0.099c-1.094,0-1.989-0.099-2.686-0.298
		c-0.597-0.199-1.094-0.497-1.492-0.796c-0.298-0.298-0.497-0.497-0.597-0.796c-0.099-0.298-0.099-0.696-0.099-0.895v-0.497v-25.265
		v-0.497c0-0.298,0-0.597,0.099-0.895c0.099-0.298,0.298-0.597,0.597-0.796c0.298-0.298,0.796-0.597,1.393-0.796
		c0.597-0.199,1.591-0.298,2.686-0.298h0.398c1.094,0,2.089,0.099,2.686,0.298c0.597,0.199,1.094,0.497,1.393,0.796
		c0.298,0.298,0.497,0.597,0.597,0.796c0.099,0.298,0.099,0.597,0.099,0.895v0.497L195.009,290.042z"/>
</g>
</svg>
